<mxfile modified="2023-10-30T10:18:59.002Z" host="Electron" agent="Mozilla/5.0 (Windows NT 10.0; Win64; x64) AppleWebKit/537.36 (KHTML, like Gecko) draw.io/22.0.0 Chrome/114.0.5735.289 Electron/25.8.3 Safari/537.36" etag="n1KHgl7MWx6EwnFQ-TR0" version="22.0.0" type="device">
  <diagram id="Ht1M8jgEwFfnCIfOTk4-" name="Page-1">
    <mxGraphModel dx="2573" dy="1641" grid="1" gridSize="4" guides="1" tooltips="1" connect="1" arrows="1" fold="1" page="1" pageScale="1" pageWidth="1169" pageHeight="827" math="0" shadow="0">
      <root>
        <mxCell id="0" />
        <mxCell id="1" parent="0" />
        <mxCell id="eYxBuY7Py7PClH6O-nrH-20" value="&lt;b&gt;&lt;font data-font-src=&quot;https://fonts.googleapis.com/css?family=Architects+Daughter&quot; face=&quot;Architects Daughter&quot; style=&quot;font-size: 14px;&quot;&gt;FRONT-END&lt;/font&gt;&lt;/b&gt;" style="fillColor=none;strokeColor=#909090;dashed=1;verticalAlign=top;fontStyle=0;fontColor=#1A1A1A;whiteSpace=wrap;html=1;rounded=1;labelBackgroundColor=none;" parent="1" vertex="1">
          <mxGeometry x="-150" y="-637" width="236" height="448" as="geometry" />
        </mxCell>
        <mxCell id="eYxBuY7Py7PClH6O-nrH-18" value="&lt;b&gt;&lt;font data-font-src=&quot;https://fonts.googleapis.com/css?family=Architects+Daughter&quot; face=&quot;Architects Daughter&quot; style=&quot;font-size: 14px;&quot;&gt;BACK -END&lt;/font&gt;&lt;/b&gt;" style="fillColor=none;strokeColor=#909090;dashed=1;verticalAlign=top;fontStyle=0;fontColor=#1A1A1A;whiteSpace=wrap;html=1;rounded=1;labelBackgroundColor=none;" parent="1" vertex="1">
          <mxGeometry x="246" y="-637" width="252" height="448" as="geometry" />
        </mxCell>
        <mxCell id="eYxBuY7Py7PClH6O-nrH-3" value="&lt;font data-font-src=&quot;https://fonts.googleapis.com/css?family=Architects+Daughter&quot; face=&quot;Architects Daughter&quot;&gt;USERS&lt;/font&gt;" style="sketch=0;outlineConnect=0;fontColor=#1A1A1A;fillColor=#F5AB50;strokeColor=none;dashed=0;verticalLabelPosition=bottom;verticalAlign=top;align=center;html=1;fontSize=12;fontStyle=0;aspect=fixed;pointerEvents=1;shape=mxgraph.aws4.users;rounded=1;labelBackgroundColor=none;" parent="1" vertex="1">
          <mxGeometry x="-644" y="-472" width="78" height="78" as="geometry" />
        </mxCell>
        <mxCell id="eYxBuY7Py7PClH6O-nrH-7" value="Corporate data center" style="points=[[0,0],[0.25,0],[0.5,0],[0.75,0],[1,0],[1,0.25],[1,0.5],[1,0.75],[1,1],[0.75,1],[0.5,1],[0.25,1],[0,1],[0,0.75],[0,0.5],[0,0.25]];outlineConnect=0;html=1;whiteSpace=wrap;fontSize=12;fontStyle=0;container=1;pointerEvents=0;collapsible=0;recursiveResize=0;shape=mxgraph.aws4.group;grIcon=mxgraph.aws4.group_corporate_data_center;strokeColor=#909090;fillColor=none;verticalAlign=top;align=left;spacingLeft=30;fontColor=#1A1A1A;dashed=0;rounded=1;labelBackgroundColor=none;" parent="1" vertex="1">
          <mxGeometry x="-234" y="-733" width="816" height="640" as="geometry" />
        </mxCell>
        <mxCell id="eYxBuY7Py7PClH6O-nrH-24" value="" style="sketch=0;outlineConnect=0;fontColor=#1A1A1A;fillColor=#F5AB50;strokeColor=none;dashed=0;verticalLabelPosition=bottom;verticalAlign=top;align=center;html=1;fontSize=12;fontStyle=0;aspect=fixed;pointerEvents=1;shape=mxgraph.aws4.mobile_client;rounded=1;labelBackgroundColor=none;" parent="eYxBuY7Py7PClH6O-nrH-7" vertex="1">
          <mxGeometry x="158" y="266" width="29.44" height="56" as="geometry" />
        </mxCell>
        <mxCell id="eYxBuY7Py7PClH6O-nrH-25" value="" style="sketch=0;outlineConnect=0;fontColor=#1A1A1A;fillColor=#F5AB50;strokeColor=none;dashed=0;verticalLabelPosition=bottom;verticalAlign=top;align=center;html=1;fontSize=12;fontStyle=0;aspect=fixed;pointerEvents=1;shape=mxgraph.aws4.client;rounded=1;labelBackgroundColor=none;" parent="eYxBuY7Py7PClH6O-nrH-7" vertex="1">
          <mxGeometry x="178" y="298" width="71.84" height="70" as="geometry" />
        </mxCell>
        <mxCell id="eYxBuY7Py7PClH6O-nrH-17" value="&lt;font data-font-src=&quot;https://fonts.googleapis.com/css?family=Architects+Daughter&quot; face=&quot;Architects Daughter&quot;&gt;&lt;b&gt;WEB SERVER&lt;/b&gt;&lt;/font&gt;" style="points=[[0,0],[0.25,0],[0.5,0],[0.75,0],[1,0],[1,0.25],[1,0.5],[1,0.75],[1,1],[0.75,1],[0.5,1],[0.25,1],[0,1],[0,0.75],[0,0.5],[0,0.25]];outlineConnect=0;html=1;whiteSpace=wrap;fontSize=12;fontStyle=0;container=1;pointerEvents=0;collapsible=0;recursiveResize=0;shape=mxgraph.aws4.group;grIcon=mxgraph.aws4.group_on_premise;strokeColor=#909090;fillColor=none;verticalAlign=top;align=left;spacingLeft=30;fontColor=#1A1A1A;dashed=0;rounded=1;labelBackgroundColor=none;" parent="eYxBuY7Py7PClH6O-nrH-7" vertex="1">
          <mxGeometry x="530" y="170" width="172" height="320" as="geometry" />
        </mxCell>
        <mxCell id="eYxBuY7Py7PClH6O-nrH-12" value="&lt;font data-font-src=&quot;https://fonts.googleapis.com/css?family=Architects+Daughter&quot; face=&quot;Architects Daughter&quot;&gt;DATABASE&lt;br&gt;POSTGRE-SQL&amp;nbsp;&lt;/font&gt;" style="sketch=0;outlineConnect=0;fontColor=#1A1A1A;fillColor=#F5AB50;strokeColor=none;dashed=0;verticalLabelPosition=bottom;verticalAlign=top;align=center;html=1;fontSize=12;fontStyle=0;aspect=fixed;pointerEvents=1;shape=mxgraph.aws4.generic_database;rounded=1;labelBackgroundColor=none;" parent="eYxBuY7Py7PClH6O-nrH-17" vertex="1">
          <mxGeometry x="56.5" y="176" width="59" height="78" as="geometry" />
        </mxCell>
        <mxCell id="eYxBuY7Py7PClH6O-nrH-36" value="&lt;font data-font-src=&quot;https://fonts.googleapis.com/css?family=Architects+Daughter&quot; face=&quot;Architects Daughter&quot;&gt;Request&lt;/font&gt;" style="text;html=1;align=center;verticalAlign=middle;resizable=0;points=[];autosize=1;strokeColor=none;fillColor=none;rounded=1;labelBackgroundColor=none;fontColor=#1A1A1A;" parent="eYxBuY7Py7PClH6O-nrH-7" vertex="1">
          <mxGeometry x="370" y="252" width="68" height="28" as="geometry" />
        </mxCell>
        <mxCell id="eYxBuY7Py7PClH6O-nrH-37" value="&lt;font data-font-src=&quot;https://fonts.googleapis.com/css?family=Architects+Daughter&quot; face=&quot;Architects Daughter&quot;&gt;Response&lt;/font&gt;" style="text;html=1;align=center;verticalAlign=middle;resizable=0;points=[];autosize=1;strokeColor=none;fillColor=none;rounded=1;labelBackgroundColor=none;fontColor=#1A1A1A;" parent="eYxBuY7Py7PClH6O-nrH-7" vertex="1">
          <mxGeometry x="366" y="307" width="76" height="28" as="geometry" />
        </mxCell>
        <mxCell id="eYxBuY7Py7PClH6O-nrH-31" value="" style="edgeStyle=orthogonalEdgeStyle;html=1;endArrow=block;elbow=vertical;startArrow=block;startFill=1;endFill=1;strokeColor=#182E3E;rounded=1;entryX=0.004;entryY=0.392;entryDx=0;entryDy=0;entryPerimeter=0;exitX=1.001;exitY=0.39;exitDx=0;exitDy=0;exitPerimeter=0;labelBackgroundColor=none;fontColor=default;" parent="eYxBuY7Py7PClH6O-nrH-7" edge="1">
          <mxGeometry width="100" relative="1" as="geometry">
            <mxPoint x="320.2359999999999" y="286" as="sourcePoint" />
            <mxPoint x="481.00800000000027" y="286.89599999999996" as="targetPoint" />
          </mxGeometry>
        </mxCell>
        <mxCell id="eYxBuY7Py7PClH6O-nrH-23" value="" style="edgeStyle=orthogonalEdgeStyle;html=1;endArrow=block;elbow=vertical;startArrow=block;startFill=1;endFill=1;strokeColor=#182E3E;rounded=1;labelBackgroundColor=none;fontColor=default;" parent="1" edge="1">
          <mxGeometry width="100" relative="1" as="geometry">
            <mxPoint x="-550" y="-397" as="sourcePoint" />
            <mxPoint x="-150" y="-397" as="targetPoint" />
          </mxGeometry>
        </mxCell>
        <mxCell id="eYxBuY7Py7PClH6O-nrH-29" value="&lt;font face=&quot;Architects Daughter&quot;&gt;BACKEND APP&lt;/font&gt;" style="sketch=0;outlineConnect=0;fontColor=#1A1A1A;fillColor=#F5AB50;strokeColor=none;dashed=0;verticalLabelPosition=bottom;verticalAlign=top;align=center;html=1;fontSize=12;fontStyle=0;aspect=fixed;pointerEvents=1;shape=mxgraph.aws4.folders;rounded=1;labelBackgroundColor=none;" parent="1" vertex="1">
          <mxGeometry x="342" y="-501" width="78" height="71" as="geometry" />
        </mxCell>
        <mxCell id="eYxBuY7Py7PClH6O-nrH-33" value="" style="edgeStyle=orthogonalEdgeStyle;html=1;endArrow=block;elbow=vertical;startArrow=block;startFill=1;endFill=1;strokeColor=#182E3E;rounded=1;exitX=1.004;exitY=0.537;exitDx=0;exitDy=0;exitPerimeter=0;entryX=0.002;entryY=0.537;entryDx=0;entryDy=0;entryPerimeter=0;labelBackgroundColor=none;fontColor=default;" parent="1" source="eYxBuY7Py7PClH6O-nrH-20" target="eYxBuY7Py7PClH6O-nrH-18" edge="1">
          <mxGeometry width="100" relative="1" as="geometry">
            <mxPoint x="122" y="-397" as="sourcePoint" />
            <mxPoint x="222" y="-397" as="targetPoint" />
          </mxGeometry>
        </mxCell>
        <mxCell id="eYxBuY7Py7PClH6O-nrH-34" value="&lt;font data-font-src=&quot;https://fonts.googleapis.com/css?family=Architects+Daughter&quot; face=&quot;Architects Daughter&quot;&gt;Collect data&lt;/font&gt;" style="text;html=1;align=center;verticalAlign=middle;resizable=0;points=[];autosize=1;strokeColor=none;fillColor=none;rounded=1;labelBackgroundColor=none;fontColor=#1A1A1A;" parent="1" vertex="1">
          <mxGeometry x="-394" y="-479.5" width="88" height="28" as="geometry" />
        </mxCell>
        <mxCell id="eYxBuY7Py7PClH6O-nrH-35" value="&lt;font data-font-src=&quot;https://fonts.googleapis.com/css?family=Architects+Daughter&quot; face=&quot;Architects Daughter&quot;&gt;Display Results&lt;/font&gt;" style="text;html=1;align=center;verticalAlign=middle;resizable=0;points=[];autosize=1;strokeColor=none;fillColor=none;rounded=1;labelBackgroundColor=none;fontColor=#1A1A1A;" parent="1" vertex="1">
          <mxGeometry x="-402" y="-426" width="104" height="28" as="geometry" />
        </mxCell>
        <mxCell id="eYxBuY7Py7PClH6O-nrH-22" value="" style="edgeStyle=orthogonalEdgeStyle;html=1;endArrow=block;elbow=vertical;startArrow=block;startFill=1;endFill=1;strokeColor=#182E3E;rounded=1;labelBackgroundColor=none;fontColor=default;" parent="1" edge="1">
          <mxGeometry width="100" relative="1" as="geometry">
            <mxPoint x="-550" y="-447" as="sourcePoint" />
            <mxPoint x="-150" y="-447" as="targetPoint" />
          </mxGeometry>
        </mxCell>
        <mxCell id="eYxBuY7Py7PClH6O-nrH-38" value="ORIGINAL ARCHITECTURE" style="text;html=1;align=center;verticalAlign=middle;resizable=0;points=[];autosize=1;strokeColor=none;fillColor=none;fontSize=20;fontFamily=Architects Daughter;fontColor=#1A1A1A;" parent="1" vertex="1">
          <mxGeometry x="-86" y="-804" width="260" height="40" as="geometry" />
        </mxCell>
      </root>
    </mxGraphModel>
  </diagram>
</mxfile>
